<svg width="27" height="25" viewBox="0 0 27 25" fill="none" xmlns="http://www.w3.org/2000/svg">
<g id="Tinga Logo">
<g id="Group 26">
<path id="Vector" d="M7.79575 10.2599V23.2669H0.284729" fill="#13917B"/>
<path id="Vector_2" d="M16.767 19.1728C16.767 17.1478 15.1111 15.5055 13.0682 15.5055C11.0253 15.5055 9.36938 17.1478 9.36938 19.1728C9.36938 21.1989 11.0253 22.8412 13.0682 22.8412C15.1111 22.8412 16.767 21.1989 16.767 19.1728Z" fill="#B59473"/>
<path id="Vector_3" d="M20.0699 14.8349C20.5737 14.3353 20.5737 13.5257 20.0699 13.0261C19.5661 12.5265 18.7498 12.5265 18.2461 13.0261C17.7423 13.5257 17.7423 14.3353 18.2461 14.8349C18.7498 15.3345 19.5661 15.3345 20.0699 14.8349Z" fill="#32645B"/>
<path id="Vector_4" d="M21.5523 14.4423L26.6178 23.2669H16.5768" fill="#F15D59"/>
<path id="Vector_5" d="M9.51172 14.2813H16.5323V7.08789H9.51172V14.2813Z" fill="#ABC43F"/>
<path id="Vector_6" d="M11.0987 3.95768C11.0987 2.88783 13.0526 1.13416 13.0526 1.13416C13.0526 1.13416 15.0066 2.88783 15.0066 3.95768C15.0066 5.02754 14.1314 5.89555 13.0526 5.89555C11.9739 5.89555 11.0987 5.02754 11.0987 3.95768Z" fill="#99CDDC"/>
</g>
</g>
</svg>
