<svg width="17" height="16" viewBox="0 0 17 16" fill="none" xmlns="http://www.w3.org/2000/svg">
<path fill-rule="evenodd" clip-rule="evenodd" d="M3.8271 7.69724L4.09438 7.7917V12.3384H13.245V7.7917L13.5123 7.69724C14.4802 7.35512 15.1407 6.43703 15.1407 5.39345C15.1407 4.0444 14.0471 2.95078 12.698 2.95078C12.3385 2.95078 11.9908 3.02823 11.6723 3.17581L11.3037 3.34664L11.1378 2.97574C10.7475 2.10287 9.87955 1.52901 8.90666 1.52901C7.86109 1.52901 6.94163 2.19201 6.60105 3.16262L6.42962 3.65116L5.99958 3.36285C5.60086 3.09554 5.13241 2.95078 4.64136 2.95078C3.29231 2.95078 2.19869 4.0444 2.19869 5.39345C2.19869 6.43703 2.85916 7.35512 3.8271 7.69724ZM4.09438 13.4469V13.1402H13.245V13.4469C13.245 14.0125 12.7865 14.471 12.2209 14.471H5.11847C4.55288 14.471 4.09438 14.0125 4.09438 13.4469ZM3.29266 8.34509C2.15405 7.82485 1.39697 6.68113 1.39697 5.39345C1.39697 3.60162 2.84954 2.14906 4.64136 2.14906C5.13048 2.14906 5.60399 2.25775 6.03386 2.46232C6.58489 1.41385 7.68042 0.727295 8.90666 0.727295C10.0673 0.727295 11.1158 1.34252 11.6927 2.30795C12.0141 2.20327 12.3524 2.14906 12.698 2.14906C14.4899 2.14906 15.9424 3.60162 15.9424 5.39345C15.9424 6.68113 15.1853 7.82485 14.0467 8.34509V13.4469C14.0467 14.4553 13.2293 15.2727 12.2209 15.2727H5.11847C4.1101 15.2727 3.29266 14.4553 3.29266 13.4469V8.34509ZM6.29996 8.5469C6.07857 8.5469 5.8991 8.72637 5.8991 8.94776V10.3695C5.8991 10.5909 6.07857 10.7704 6.29996 10.7704C6.52135 10.7704 6.70082 10.5909 6.70082 10.3695V8.94776C6.70082 8.72637 6.52135 8.5469 6.29996 8.5469ZM8.26842 9.42183C8.26842 9.20044 8.44789 9.02097 8.66928 9.02097C8.89067 9.02097 9.07014 9.20044 9.07014 9.42183V10.8436C9.07014 11.065 8.89067 11.2445 8.66928 11.2445C8.44789 11.2445 8.26842 11.065 8.26842 10.8436V9.42183ZM11.0393 8.5469C10.8179 8.5469 10.6384 8.72637 10.6384 8.94776V10.3695C10.6384 10.5909 10.8179 10.7704 11.0393 10.7704C11.2607 10.7704 11.4402 10.5909 11.4402 10.3695V8.94776C11.4402 8.72637 11.2607 8.5469 11.0393 8.5469Z" fill="#AAC54E"/>
</svg>
