<svg width="20" height="20" viewBox="0 0 20 20" fill="none" xmlns="http://www.w3.org/2000/svg">
<g id="google">
<path id="Shape" fill-rule="evenodd" clip-rule="evenodd" d="M17.64 10.2042C17.64 9.56601 17.5827 8.95237 17.4764 8.36328H9V11.8446H13.8436C13.635 12.9696 13.0009 13.9228 12.0477 14.561V16.8192H14.9564C16.6582 15.2524 17.64 12.9451 17.64 10.2042Z" fill="#4285F4"/>
<path id="Shape_2" fill-rule="evenodd" clip-rule="evenodd" d="M9 19C11.43 19 13.4673 18.1941 14.9564 16.8195L12.0477 14.5613C11.2418 15.1013 10.2109 15.4204 9 15.4204C6.65591 15.4204 4.67182 13.8372 3.96409 11.71H0.957275V14.0418C2.43818 16.9831 5.48182 19 9 19Z" fill="#34A853"/>
<path id="Shape_3" fill-rule="evenodd" clip-rule="evenodd" d="M3.96409 11.7098C3.78409 11.1698 3.68182 10.593 3.68182 9.99983C3.68182 9.40664 3.78409 8.82983 3.96409 8.28983V5.95801H0.957273C0.347727 7.17301 0 8.54755 0 9.99983C0 11.4521 0.347727 12.8266 0.957273 14.0416L3.96409 11.7098Z" fill="#FBBC05"/>
<path id="Shape_4" fill-rule="evenodd" clip-rule="evenodd" d="M9 4.57955C10.3214 4.57955 11.5077 5.03364 12.4405 5.92545L15.0218 3.34409C13.4632 1.89182 11.4259 1 9 1C5.48182 1 2.43818 3.01682 0.957275 5.95818L3.96409 8.29C4.67182 6.16273 6.65591 4.57955 9 4.57955Z" fill="#EA4335"/>
</g>
</svg>
