<svg width="20" height="20" viewBox="0 0 20 20" fill="none" xmlns="http://www.w3.org/2000/svg">
<path d="M16.5766 0H3.42325C1.53268 0 0 1.53268 0 3.42325V16.5766C0 18.4672 1.53268 19.9999 3.42325 19.9999H16.5766C18.4672 19.9999 19.9999 18.4672 19.9999 16.5766V3.42325C19.9999 1.53268 18.4672 0 16.5766 0ZM7.35688 15.1106C6.67565 15.7918 5.57088 15.7918 4.88934 15.1106C4.20842 14.4293 4.20811 13.3245 4.88934 12.643C5.57057 11.9621 6.67534 11.9621 7.35688 12.6433C8.0378 13.3245 8.03811 14.429 7.35688 15.1106ZM11.2339 11.2339C10.5526 11.9148 9.44787 11.9148 8.76633 11.2336C8.08541 10.5526 8.0851 9.44756 8.76633 8.76602C9.44756 8.08448 10.5523 8.0851 11.2339 8.76602C11.9148 9.44756 11.9151 10.5523 11.2339 11.2339ZM15.1109 7.35657C14.4296 8.0378 13.3249 8.0378 12.6433 7.35657C11.9624 6.67566 11.9621 5.57057 12.6433 4.88934C13.3245 4.20811 14.4293 4.20811 15.1106 4.88934C15.7918 5.57057 15.7921 6.67534 15.1109 7.35657Z" fill="#41393E"/>
</svg>
