<svg width="24" height="24" viewBox="0 0 24 24" fill="none" xmlns="http://www.w3.org/2000/svg">
<g id="options-outline 1">
<path id="Vector" d="M18 17.25V21" stroke="#5B5B5B" stroke-width="1.2" stroke-linecap="round" stroke-linejoin="round"/>
<path id="Vector_2" d="M18 3V14.25" stroke="#5B5B5B" stroke-width="1.2" stroke-linecap="round" stroke-linejoin="round"/>
<path id="Vector_3" d="M6 17.25V21" stroke="#5B5B5B" stroke-width="1.2" stroke-linecap="round" stroke-linejoin="round"/>
<path id="Vector_4" d="M6 3L6 14.25" stroke="#5B5B5B" stroke-width="1.2" stroke-linecap="round" stroke-linejoin="round"/>
<path id="Vector_5" d="M12 9.75V21" stroke="#5B5B5B" stroke-width="1.2" stroke-linecap="round" stroke-linejoin="round"/>
<path id="Vector_6" d="M12 3V6.75" stroke="#5B5B5B" stroke-width="1.2" stroke-linecap="round" stroke-linejoin="round"/>
<path id="Vector_7" d="M16.5 15.75C16.5 16.5784 17.1716 17.25 18 17.25C18.8284 17.25 19.5 16.5784 19.5 15.75C19.5 14.9216 18.8284 14.25 18 14.25C17.1716 14.25 16.5 14.9216 16.5 15.75Z" stroke="#5B5B5B" stroke-width="1.2" stroke-linecap="round" stroke-linejoin="round"/>
<path id="Vector_8" d="M10.5 8.25C10.5 9.07843 11.1716 9.75 12 9.75C12.8284 9.75 13.5 9.07843 13.5 8.25C13.5 7.42157 12.8284 6.75 12 6.75C11.1716 6.75 10.5 7.42157 10.5 8.25Z" stroke="#5B5B5B" stroke-width="1.2" stroke-linecap="round" stroke-linejoin="round"/>
<path id="Vector_9" d="M4.5 15.75C4.5 16.5784 5.17157 17.25 6 17.25C6.82843 17.25 7.5 16.5784 7.5 15.75C7.5 14.9216 6.82843 14.25 6 14.25C5.17157 14.25 4.5 14.9216 4.5 15.75Z" stroke="#5B5B5B" stroke-width="1.2" stroke-linecap="round" stroke-linejoin="round"/>
</g>
</svg>
