<svg width="21" height="21" viewBox="0 0 21 21" fill="none" xmlns="http://www.w3.org/2000/svg">
<path fill-rule="evenodd" clip-rule="evenodd" d="M4.17639 9.70867L4.54389 9.83856V16.0902H17.126V9.83856L17.4935 9.70867C18.8244 9.23826 19.7326 7.97588 19.7326 6.54097C19.7326 4.68602 18.2289 3.18229 16.3739 3.18229C15.8796 3.18229 15.4015 3.28879 14.9636 3.49171L14.4567 3.72661L14.2287 3.21662C13.692 2.01641 12.4985 1.22736 11.1608 1.22736C9.72312 1.22736 8.45886 2.13899 7.99057 3.47357L7.75486 4.14531L7.16355 3.74889C6.61531 3.38134 5.97119 3.18229 5.296 3.18229C3.44105 3.18229 1.93732 4.68602 1.93732 6.54097C1.93732 7.97588 2.84547 9.23826 4.17639 9.70867ZM4.54389 17.6145V17.1926H17.126V17.6145C17.126 18.3922 16.4956 19.0226 15.7179 19.0226H5.95202C5.17433 19.0226 4.54389 18.3922 4.54389 17.6145ZM3.44153 10.5995C1.87595 9.88413 0.834961 8.31153 0.834961 6.54097C0.834961 4.0772 2.83223 2.07993 5.296 2.07993C5.96854 2.07993 6.61961 2.22938 7.21069 2.51065C7.96834 1.06901 9.47469 0.125 11.1608 0.125C12.7567 0.125 14.1984 0.970936 14.9915 2.29839C15.4335 2.15447 15.8987 2.07993 16.3739 2.07993C18.8377 2.07993 20.835 4.0772 20.835 6.54097C20.835 8.31153 19.794 9.88413 18.2284 10.5995V17.6145C18.2284 19.001 17.1044 20.125 15.7179 20.125H5.95202C4.56552 20.125 3.44153 19.001 3.44153 17.6145V10.5995ZM7.57666 10.8772C7.27225 10.8772 7.02548 11.1239 7.02548 11.4284V13.3833C7.02548 13.6877 7.27225 13.9345 7.57666 13.9345C7.88107 13.9345 8.12784 13.6877 8.12784 13.3833V11.4284C8.12784 11.1239 7.88107 10.8772 7.57666 10.8772ZM10.2836 12.0798C10.2836 11.7754 10.5304 11.5286 10.8348 11.5286C11.1392 11.5286 11.386 11.7754 11.386 12.0798V14.0347C11.386 14.3391 11.1392 14.5859 10.8348 14.5859C10.5304 14.5859 10.2836 14.3391 10.2836 14.0347V12.0798ZM14.093 10.8772C13.7886 10.8772 13.5418 11.1239 13.5418 11.4284V13.3833C13.5418 13.6877 13.7886 13.9345 14.093 13.9345C14.3974 13.9345 14.6442 13.6877 14.6442 13.3833V11.4284C14.6442 11.1239 14.3974 10.8772 14.093 10.8772Z" fill="#AEACAE"/>
</svg>
