<svg width="28" height="18" viewBox="0 0 28 18" fill="none" xmlns="http://www.w3.org/2000/svg">
<path d="M6.7803 0.5C5.11782 0.5 3.75909 1.84032 3.75909 3.47846C3.75909 4.71405 4.5272 5.77818 5.62123 6.22782C2.7677 6.72286 0.564514 8.99681 0.564514 11.7909C0.564718 12.1148 0.82611 12.3774 1.14882 12.3774H5.54811C5.70457 12.3797 5.85513 12.3189 5.96658 12.2086C6.07802 12.0984 6.14056 11.948 6.14056 11.7909C6.14056 11.6338 6.07802 11.4835 5.96658 11.3732C5.85513 11.2629 5.70457 11.2022 5.54811 11.2044H1.79671C2.11983 9.01867 4.18489 7.29108 6.7803 7.29108C8.0549 7.29108 9.21146 7.70491 10.0936 8.39082C10.1444 8.43746 10.2032 8.47469 10.267 8.50087C10.6066 9.10432 11.0885 9.618 11.6726 9.99459C8.43909 10.9024 6.05012 13.6356 6.05012 16.9135C6.05012 17.2376 6.31172 17.5 6.63422 17.5H21.3658C21.6883 17.5 21.9499 17.2375 21.9499 16.9135C21.9499 13.6354 19.5609 10.9021 16.3274 9.99459C16.9115 9.61798 17.3934 9.10432 17.733 8.50087C17.7968 8.47469 17.8556 8.43746 17.9064 8.39082C18.7885 7.70489 19.9452 7.29108 21.2197 7.29108C23.8151 7.29108 25.8801 9.01861 26.2033 11.2044H22.4519C22.2954 11.2022 22.1449 11.2629 22.0334 11.3732C21.922 11.4835 21.8594 11.6338 21.8594 11.7909C21.8594 11.948 21.922 12.0984 22.0334 12.2086C22.1449 12.3189 22.2954 12.3797 22.4519 12.3774H26.8512C27.1739 12.3774 27.4353 12.1147 27.4355 11.7909C27.4355 8.99696 25.2323 6.72307 22.3788 6.22782C23.4729 5.77818 24.2409 4.71405 24.2409 3.47846C24.2409 1.84032 22.8822 0.5 21.2197 0.5C19.557 0.5 18.1985 1.84032 18.1985 3.47846C18.1985 4.70729 18.958 5.76467 20.0423 6.21881C19.405 6.32928 18.8068 6.53036 18.2533 6.80528C18.2625 6.69339 18.2714 6.58026 18.2714 6.46611C18.2714 4.14739 16.352 2.25044 13.9999 2.25044C11.6478 2.25044 9.72844 4.14739 9.72844 6.46611C9.72844 6.58026 9.7374 6.69338 9.74657 6.80528C9.19304 6.53035 8.59486 6.32926 7.95756 6.21881C9.04183 5.76467 9.80139 4.70729 9.80139 3.47846C9.80139 1.84032 8.44287 0.5 6.78018 0.5H6.7803ZM6.7803 1.65478C7.80548 1.65478 8.62413 2.46833 8.62413 3.47846C8.62413 4.48881 7.80554 5.29314 6.7803 5.29314C5.75506 5.29314 4.93668 4.48881 4.93668 3.47846C4.93668 2.46833 5.75506 1.65478 6.7803 1.65478ZM21.2198 1.65478C22.245 1.65478 23.0634 2.46833 23.0634 3.47846C23.0634 4.48881 22.245 5.29314 21.2198 5.29314C20.1945 5.29314 19.3759 4.48881 19.3759 3.47846C19.3759 2.46833 20.1945 1.65478 21.2198 1.65478ZM13.9998 3.41447C15.7148 3.41447 17.0939 4.77563 17.0939 6.46615C17.0939 8.15687 15.7148 9.51803 13.9998 9.51803C12.2847 9.51803 10.9057 8.15687 10.9057 6.46615C10.9057 4.77563 12.2847 3.41447 13.9998 3.41447ZM13.9998 10.8377C17.5554 10.8377 20.3863 13.2765 20.7175 16.327H7.28204C7.61332 13.2763 10.4442 10.8377 13.9998 10.8377Z" fill="#13917B"/>
</svg>
